<svg id="Lager_1" data-name="Lager 1" xmlns="http://www.w3.org/2000/svg" xmlns:xlink="http://www.w3.org/1999/xlink" viewBox="0 0 197.44 74.3"><defs><style>.cls-1,.cls-13,.cls-14,.cls-7,.cls-8,.cls-9{fill:none;}.cls-2{clip-path:url(#clip-path);}.cls-10,.cls-12,.cls-3,.cls-4,.cls-5,.cls-6{fill:#fff;}.cls-12,.cls-3,.cls-4,.cls-5,.cls-6{stroke:#fff;}.cls-12,.cls-13,.cls-14,.cls-3,.cls-4,.cls-5,.cls-6,.cls-7,.cls-8,.cls-9{stroke-miterlimit:10;}.cls-3{stroke-width:9.09px;}.cls-4{stroke-width:13.34px;}.cls-5{stroke-width:4.2px;}.cls-6{stroke-width:10.98px;}.cls-13,.cls-7,.cls-8,.cls-9{stroke:#000;}.cls-7{stroke-width:7.85px;}.cls-8{stroke-width:1.18px;}.cls-9{stroke-width:1.18px;}.cls-11{fill:#fed100;}.cls-12{stroke-width:4.59px;}.cls-13{stroke-width:2.12px;}.cls-14{stroke:#fed100;stroke-width:2.1px;}</style><clipPath id="clip-path" transform="translate(8.41 -15.66)"><path class="cls-1" d="M150,51.24c0,19.7-30.27,35.66-67.33,35.66s-67.1-16-67.1-35.66,30-35.66,67.1-35.66S150,31.55,150,51.24Z"/></clipPath></defs><title>fishlogga</title><g class="cls-2"><line class="cls-3" x1="37.95" y1="11.44" x2="37.95" y2="70.37"/><line class="cls-4" y1="11.84" x2="62" y2="11.86"/><path class="cls-5" d="M69.74,28.59" transform="translate(8.41 -15.66)"/><path class="cls-5" d="M38.73,36.22" transform="translate(8.41 -15.66)"/><line class="cls-3" x1="33.68" y1="36.45" x2="54.48" y2="36.45"/><line class="cls-6" x1="70.38" y1="4.51" x2="70.38" y2="70.14"/><line class="cls-6" x1="122.61" y1="4.51" x2="122.61" y2="70.14"/><line class="cls-3" x1="125.65" y1="36.45" x2="148.39" y2="36.45"/><line class="cls-3" x1="144.31" y1="4.67" x2="144.31" y2="70.3"/><path class="cls-7" d="M75.52,39.53" transform="translate(8.41 -15.66)"/><path class="cls-7" d="M75.68,38.37" transform="translate(8.41 -15.66)"/><path class="cls-7" d="M75.08,67.61" transform="translate(8.41 -15.66)"/></g><path class="cls-8" d="M25.67,69.38" transform="translate(8.41 -15.66)"/><path class="cls-9" d="M25.49,33.14" transform="translate(8.41 -15.66)"/><path class="cls-10" d="M30.79,71.19a61.72,61.72,0,0,1-13-9.82c-3.61-3.4-7.09-7.18-8.65-12-.34-1-2-.6-1.65.45,1.62,5,5.09,9,8.83,12.51A63.82,63.82,0,0,0,29.93,72.66c1,.52,1.83-1,.86-1.47Z" transform="translate(8.41 -15.66)"/><path class="cls-10" d="M40.27,24.67A27.9,27.9,0,0,0,34.75,27c-2.45,1.23-4.84,2.56-7.2,3.94a74.37,74.37,0,0,0-13.36,9.91A26.36,26.36,0,0,0,7.5,50.13c-.41,1,1.24,1.47,1.65.46,1.65-4.09,4.76-7.31,8.06-10.13a69.16,69.16,0,0,1,8.11-6.15C28,32.61,30.79,31,33.6,29.53a32.57,32.57,0,0,1,7.13-3.2.86.86,0,0,0-.46-1.66Z" transform="translate(8.41 -15.66)"/><path class="cls-10" d="M16.65,47q-.12,4.85.22,9.68a28.93,28.93,0,0,0-.41-8.56,14.89,14.89,0,0,0-.81,5.29A29.57,29.57,0,0,0,13,46.11a14.77,14.77,0,0,0-.11,6.71,11,11,0,0,0-2-2.63,3.51,3.51,0,0,0-.31,1.69l-1.09-2c1.69,2.14,2.58,4.83,4.36,6.9a24,24,0,0,0,2.88,2.63A84.08,84.08,0,0,1,25,67.22c-1-8-.73-16.1-.47-24.16l.32-10a55.46,55.46,0,0,1-5.08,4.49,48.75,48.75,0,0,0-5.89,4.92A33.14,33.14,0,0,0,9.63,48.9,7.55,7.55,0,0,1,11.47,46a25.56,25.56,0,0,1-1.19,3.72,9,9,0,0,0,.86-2.41l-.21,4.42.85-2.84a25.56,25.56,0,0,0,.3,4.62,11.08,11.08,0,0,0,.43-2.91,25.4,25.4,0,0,0,3.91,8.58,25.38,25.38,0,0,0-4.65-8.08A59.76,59.76,0,0,0,17.85,61a5.55,5.55,0,0,0-.77-3.36q-1.81-3.83-3.9-7.5l2.45,5.31c-.61-3.3-3.08-6-4-9.19.09.29.5,0,.57-.34a12.34,12.34,0,0,1,4.45-6.44,36.61,36.61,0,0,1,6.86-4,29.47,29.47,0,0,0-10,8.36,11.71,11.71,0,0,0,3.72-3.1l-3.86,7.51A30.17,30.17,0,0,0,15.51,43a17.34,17.34,0,0,0-2.24,3.56,3.8,3.8,0,0,1,.62-1.41c-.14-.08-.18.24,0,.27s.29-.11.39-.24L15.12,44,14.82,51a2,2,0,0,0,.81-1.57,51.07,51.07,0,0,0,.62-6.64,16.53,16.53,0,0,0-1.36,7,45.17,45.17,0,0,0,2-9.12l-.18,7.12A26.08,26.08,0,0,0,18.61,40l-.4,6.2a51.78,51.78,0,0,0,.08-6.35,18.15,18.15,0,0,0-.9,4.5,42.44,42.44,0,0,0,2.42-6.45l-.09,5.22a21.17,21.17,0,0,0,1.52-5l-.5,5.19a16,16,0,0,0,1.05-5.16l-.21,2.65.86-4.29a6.43,6.43,0,0,1,.15,2.35l.3-2-.15,1,.2-1a10.19,10.19,0,0,0-.13,3.35,8,8,0,0,0,.61-2.89l.13,1.57.34-2.5q.28,14.27-.33,28.53l-.23-25.8c-.81,8-1,16.15-1.16,24.24q-.66-10.76-1-21.52c-1.08,6.94-.47,14-.9,21a92,92,0,0,1-1.71-20.95q.67,9.86,1,19.73A33,33,0,0,0,19,55a48.52,48.52,0,0,1-.33-10.36,74.08,74.08,0,0,0,.24,14.74l-1.45-12.8q-.31,6.31-.08,12.65c1.43-4.92.55-10.26,1.83-15.22L20,48.3l.35-3.7,0,1.81" transform="translate(8.41 -15.66)"/><path class="cls-10" d="M15.79,47q-.1,4.85.22,9.68a.86.86,0,0,0,1.72,0,30.86,30.86,0,0,0-.45-8.79c-.17-.88-1.41-.74-1.65,0a16.7,16.7,0,0,0-.83,5.52l1.68-.22a32.52,32.52,0,0,0-2.72-7.48.86.86,0,0,0-1.56.21,16.47,16.47,0,0,0-.12,7.16l1.57-.67a13.9,13.9,0,0,0-2.09-2.8.87.87,0,0,0-1.44.38,5.25,5.25,0,0,0-.34,1.92l1.6-.43-1.09-2-1.48.86a49.72,49.72,0,0,1,2.95,4.9,16.44,16.44,0,0,0,3.59,4.12,95.46,95.46,0,0,1,9,8.5c.47.51,1.56.14,1.47-.61-1.35-11.3-.52-22.78-.16-34.12a.87.87,0,0,0-1.46-.61c-2.74,2.72-5.84,4.92-8.79,7.38a29.06,29.06,0,0,0-6.55,8.6l1.57.66a7.1,7.1,0,0,1,1.62-2.56l-1.44-.84a28.25,28.25,0,0,1-1.19,3.72c-.36.91,1.13,1.53,1.57.67a11.64,11.64,0,0,0,1-2.63l-1.69-.22-.21,4.42c-.05,1,1.41,1.13,1.69.23l.85-2.84-1.69-.23a29.22,29.22,0,0,0,.33,4.85c.13.87,1.45.75,1.65,0a13.4,13.4,0,0,0,.47-3.14l-1.68.23a26.86,26.86,0,0,0,4,8.78c.51.74,1.92.32,1.57-.66a27.53,27.53,0,0,0-4.87-8.45c-.67-.79-1.76.21-1.35,1a63.2,63.2,0,0,0,6.08,9.9.87.87,0,0,0,1.6-.44c.24-2-.87-3.78-1.71-5.48-1-2-2-3.9-3.08-5.81-.56-1-1.94-.12-1.49.86l2.46,5.31c.43.93,1.76.24,1.57-.66-.7-3.33-3-6-4-9.19L11,46.83l.12.11a.86.86,0,0,0,.83.22c1.1-.38,1.12-1.5,1.53-2.44a11.81,11.81,0,0,1,2.56-3.61c2.24-2.2,5.11-3.6,7.88-5l-.87-1.48a30.64,30.64,0,0,0-10.19,8.5c-.57.73.12,1.85,1,1.35a13.11,13.11,0,0,0,3.89-3.25l-1.34-1-3.86,7.51c-.5,1,1,1.85,1.48.87a33.42,33.42,0,0,0,2.24-5.35c.26-.78-.89-1.52-1.43-.83a19.8,19.8,0,0,0-2.37,3.73l1.57.66a4.09,4.09,0,0,1,.53-1.21.86.86,0,0,0-1-1.26l-.1,0a.9.9,0,0,0-.63.83,1,1,0,0,0,.33.85.83.83,0,0,0,.83.22c.86-.25,1.27-1.16,1.77-1.85L14.26,44,14,51a.86.86,0,0,0,1.29.74c1.17-.82,1.23-2.17,1.41-3.5.24-1.81.38-3.62.44-5.45,0-1-1.34-1-1.69-.22A17.88,17.88,0,0,0,14,49.86a.86.86,0,0,0,1.68.22,48.07,48.07,0,0,0,2.05-9.34H16l-.18,7.12c0,1,1.35,1.07,1.69.23A28.32,28.32,0,0,0,19.47,40H17.75l-.4,6.2c-.07,1.1,1.64,1.09,1.72,0a58.5,58.5,0,0,0,.08-6.35.87.87,0,0,0-1.69-.23,21.19,21.19,0,0,0-.93,4.73.86.86,0,0,0,1.6.43,48,48,0,0,0,2.51-6.65L19,37.93l-.09,5.22c0,.8,1.25,1.24,1.6.44a24.23,24.23,0,0,0,1.61-5.26l-1.68-.23-.51,5.19c-.1,1,1.37,1.07,1.68.23a17.83,17.83,0,0,0,1.09-5.39c.06-1.12-1.62-1.09-1.71,0l-.22,2.65a.86.86,0,0,0,1.69.23l.85-4.29H21.61a6.87,6.87,0,0,1,.12,2.12c-.08,1,1.54,1.19,1.69.23l.29-2-1.65-.46-.14,1c-.16,1.06,1.42,1.56,1.65.45l.2-1-1.66-.46A13,13,0,0,0,22,40.19a.87.87,0,0,0,1.69.23,9.81,9.81,0,0,0,.64-3.12H22.56l.13,1.57c.08.88,1.55,1.25,1.69.22l.34-2.49L23,36.37q.28,14.27-.33,28.53h1.71l-.22-25.8a.86.86,0,0,0-1.72,0c-.8,8.06-1,16.15-1.16,24.24H23q-.66-10.76-1-21.52c0-.92-1.53-1.23-1.68-.23-1.07,7-.53,14.19-.94,21.28l1.68-.22a93.63,93.63,0,0,1-1.67-20.73H17.76q.66,9.86,1,19.73a.86.86,0,0,0,1.72,0c.13-2.89-.57-5.71-.86-8.57a51.22,51.22,0,0,1-.11-8.49H17.82a76.42,76.42,0,0,0,.24,14.74c.14,1.07,1.85,1.1,1.72,0l-1.45-12.8a.86.86,0,0,0-1.71,0q-.32,6.31-.09,12.65a.86.86,0,0,0,1.68.23c1.38-5,.61-10.22,1.83-15.22H18.39l.77,4.34c.18,1,1.6.66,1.69-.23l.35-3.7H19.48l0,1.81a.86.86,0,0,0,1.71,0V44.6a.86.86,0,0,0-1.72,0l-.35,3.7,1.69-.23L20,43.73a.86.86,0,0,0-1.65,0c-1.22,5-.46,10.25-1.83,15.22l1.69.23q-.22-6.33.08-12.65H16.62l1.44,12.8h1.72a77.23,77.23,0,0,1-.25-14.74c.08-1.1-1.63-1.1-1.71,0a49.14,49.14,0,0,0,.11,8.49c.28,2.86,1,5.68.85,8.57H20.5q-.36-9.87-1-19.73a.86.86,0,0,0-1.71,0A94.07,94.07,0,0,0,19.49,63.1c.19,1,1.63.69,1.68-.23.41-6.93-.16-13.93.88-20.83l-1.69-.22q.3,10.77.95,21.52a.86.86,0,0,0,1.72,0c.17-8.09.36-16.18,1.16-24.24H22.47l.23,25.8a.86.86,0,0,0,1.71,0q.63-14.25.34-28.53c0-.92-1.56-1.22-1.69-.23l-.34,2.5,1.69.23-.13-1.57a.86.86,0,0,0-1.72,0A8.13,8.13,0,0,1,22,40l1.69.23a10.88,10.88,0,0,1,.1-3.12c.2-1.07-1.43-1.54-1.66-.46l-.19,1,1.65.45.14-1c.16-1.08-1.49-1.55-1.65-.46l-.3,2,1.69.22a8.63,8.63,0,0,0-.19-2.58.86.86,0,0,0-1.65,0l-.86,4.29,1.69.23.21-2.65H20.94a16.68,16.68,0,0,1-1,4.93l1.68.23.51-5.19c.1-1-1.51-1.18-1.68-.23A22.18,22.18,0,0,1,19,42.72l1.59.43.1-5.22A.86.86,0,0,0,19,37.7a43.34,43.34,0,0,1-2.33,6.24l1.59.44a19.29,19.29,0,0,1,.88-4.27l-1.69-.23a56.06,56.06,0,0,1-.08,6.35h1.72l.4-6.2c.07-1.11-1.62-1.08-1.72,0a26.6,26.6,0,0,1-1.86,7.6l1.69.23.18-7.12c0-1.13-1.59-1.07-1.72,0a45.88,45.88,0,0,1-2,8.89l1.69.23a16.74,16.74,0,0,1,1.32-6.81l-1.68-.23c0,1.27-.12,2.54-.25,3.8-.07.72-.15,1.43-.26,2.14-.07.43-.08,1.25-.49,1.53l1.29.74L16,44c0-.92-1.14-1.07-1.59-.44a6.77,6.77,0,0,1-.74,1.07l.83.22-.09-.1.25.6v-.14L14,46l.11,0-1-1.26a5.42,5.42,0,0,0-.7,1.62c-.24.91,1.13,1.56,1.56.66a18.7,18.7,0,0,1,2.1-3.38l-1.43-.84a31.45,31.45,0,0,1-2.07,4.94l1.48.87L18,41.08c.42-.82-.7-1.84-1.35-1a11.77,11.77,0,0,1-3.54,3l1,1.35A29.67,29.67,0,0,1,24,36.13c1-.51.12-2-.87-1.48a34.71,34.71,0,0,0-7.48,4.57,14.59,14.59,0,0,0-2.55,2.83,11.28,11.28,0,0,0-1,1.72,11.47,11.47,0,0,0-.53,1.73l.83.23-.11-.12a.87.87,0,0,0-1.44.84c1,3.22,3.3,5.87,4,9.19L16.37,55l-2.45-5.3-1.49.86c.93,1.64,1.82,3.29,2.67,5S17.23,59.06,17,61l1.6-.43a62.74,62.74,0,0,1-6.08-9.9l-1.35,1a25,25,0,0,1,4.43,7.69l1.57-.66a25.84,25.84,0,0,1-3.82-8.37.87.87,0,0,0-1.69.23,11.07,11.07,0,0,1-.4,2.68H12.9a26.89,26.89,0,0,1-.26-4.39A.86.86,0,0,0,11,48.62l-.85,2.84,1.69.23L12,47.27A.86.86,0,0,0,10.31,47a9.06,9.06,0,0,1-.77,2.21l1.57.66a30.37,30.37,0,0,0,1.19-3.72.87.87,0,0,0-1.44-.84,9.29,9.29,0,0,0-2,3.32c-.34.93,1.1,1.5,1.56.67A27.71,27.71,0,0,1,17,40.81a110.33,110.33,0,0,0,8.46-7.1L24,33.1c-.36,11.34-1.2,22.82.15,34.12l1.47-.6a90.29,90.29,0,0,0-8.71-8.23,16.26,16.26,0,0,1-3.75-4.22,43.49,43.49,0,0,0-2.85-4.72.86.86,0,0,0-1.48.86l1.09,2a.87.87,0,0,0,1.6-.44,3.83,3.83,0,0,1,.28-1.46l-1.43.38a11.55,11.55,0,0,1,1.82,2.45.86.86,0,0,0,1.57-.66,14.33,14.33,0,0,1,.11-6.25l-1.57.21a31,31,0,0,1,2.55,7.06.86.86,0,0,0,1.68-.23,15.28,15.28,0,0,1,.77-5.06H15.63A29.45,29.45,0,0,1,16,56.65h1.72q-.33-4.83-.22-9.68a.86.86,0,0,0-1.72,0Z" transform="translate(8.41 -15.66)"/><path class="cls-10" d="M15.41,46.59a.86.86,0,0,0,0-1.71.86.86,0,0,0,0,1.71Z" transform="translate(8.41 -15.66)"/><path class="cls-11" d="M92,46c-7.92-1-9.89-4.92-9.89-7.62C82.11,35.86,83,31,92,33c1.72.61,3.75,2.69,6.29,5.12l6.94-9.89A21,21,0,0,0,92,21.6V15.66H85.71v5.85Q78.5,21.9,75,26.65a19,19,0,0,0-3.52,11.64A18.36,18.36,0,0,0,85,56.48L90,58l2,1h0l.34.34.32.32L93,60c1,1,2.82,2.47,2.82,4.9,0,3-.82,5.1-3.82,6.1-4,1-11,2-16.16-6l-6.65,9.49a19.08,19.08,0,0,0,7.26,5.77,19.32,19.32,0,0,0,8.16,2.25h1V90h6.19V82.42q7.17-1.48,10.86-6.16a18,18,0,0,0,3.69-11.53C106.38,55.66,102,48,92,46Z" transform="translate(8.41 -15.66)"/><path class="cls-12" d="M53.8,87.25" transform="translate(8.41 -15.66)"/><path class="cls-12" d="M53.8,14.38" transform="translate(8.41 -15.66)"/><path class="cls-13" d="M143.88,45.52" transform="translate(8.41 -15.66)"/><line class="cls-14" x1="152.29" y1="18.68" x2="182.49" y2="18.68"/><line class="cls-14" x1="152.29" y1="24.39" x2="173.98" y2="24.39"/><line class="cls-14" x1="152.29" y1="35.79" x2="176.62" y2="35.79"/><line class="cls-14" x1="152.39" y1="29.91" x2="178.54" y2="29.91"/><line class="cls-14" x1="152.29" y1="41.5" x2="186.11" y2="41.5"/><line class="cls-14" x1="152.29" y1="47.2" x2="190.32" y2="47.2"/><line class="cls-14" x1="152.52" y1="52.9" x2="197.44" y2="53.02"/><circle cx="26.71" cy="32.96" r="2.07"/></svg>